<svg xmlns="http://www.w3.org/2000/svg" width="200" height="200" viewBox="0 0 200 200" version="1.1"><path d="M 86.575 26.060 C 68.622 29.065, 51.518 39.578, 40.250 54.532 C 28.748 69.796, 24.149 85.528, 25.348 105.500 C 27.213 136.556, 46.943 161.528, 78 172.141 C 83.444 174.001, 86.774 174.373, 98.500 174.431 C 107.083 174.473, 114.628 173.979, 118 173.154 C 126.046 171.184, 140.578 163.780, 147.738 158.003 C 158.987 148.925, 169.569 132.249, 173.121 118 C 174.924 110.766, 174.916 89.183, 173.107 82 C 165.938 53.535, 141.646 30.555, 113.981 26.067 C 106.542 24.860, 93.762 24.857, 86.575 26.060 M 90.428 54.559 C 76.913 65.741, 69.463 75.627, 65.884 87.125 C 61.155 102.319, 65.806 119.134, 77.244 128.193 C 82.278 132.180, 91.474 135.946, 96.250 135.976 L 100 136 100 144 C 100 148.400, 100.252 152, 100.560 152 C 101.776 152, 110.861 144.553, 117.392 138.202 C 130.816 125.148, 136.641 112.475, 135.793 98.164 C 134.856 82.334, 126.067 70.723, 111.349 65.867 C 108.236 64.840, 104.409 64, 102.845 64 L 100 64 100 56 C 100 51.600, 99.630 48, 99.178 48 C 98.726 48, 94.789 50.952, 90.428 54.559" stroke="none" fill="#0790eb" fill-rule="evenodd"/><path d="M -0 100.005 L -0 200.010 100.250 199.755 L 200.500 199.500 200.755 99.750 L 201.010 0 100.505 0 L 0 0 -0 100.005 M 0.481 100.500 C 0.481 155.500, 0.602 178.147, 0.750 150.826 C 0.898 123.506, 0.898 78.506, 0.750 50.826 C 0.602 23.147, 0.481 45.500, 0.481 100.500 M 86.575 26.060 C 68.622 29.065, 51.518 39.578, 40.250 54.532 C 28.748 69.796, 24.149 85.528, 25.348 105.500 C 27.213 136.556, 46.943 161.528, 78 172.141 C 83.444 174.001, 86.774 174.373, 98.500 174.431 C 107.083 174.473, 114.628 173.979, 118 173.154 C 126.046 171.184, 140.578 163.780, 147.738 158.003 C 158.987 148.925, 169.569 132.249, 173.121 118 C 174.924 110.766, 174.916 89.183, 173.107 82 C 165.938 53.535, 141.646 30.555, 113.981 26.067 C 106.542 24.860, 93.762 24.857, 86.575 26.060 M 90.428 54.559 C 76.913 65.741, 69.463 75.627, 65.884 87.125 C 61.155 102.319, 65.806 119.134, 77.244 128.193 C 82.278 132.180, 91.474 135.946, 96.250 135.976 L 100 136 100 144 C 100 148.400, 100.252 152, 100.560 152 C 101.776 152, 110.861 144.553, 117.392 138.202 C 130.816 125.148, 136.641 112.475, 135.793 98.164 C 134.856 82.334, 126.067 70.723, 111.349 65.867 C 108.236 64.840, 104.409 64, 102.845 64 L 100 64 100 56 C 100 51.600, 99.630 48, 99.178 48 C 98.726 48, 94.789 50.952, 90.428 54.559" stroke="none" fill="#fbfbfb" fill-rule="evenodd"/></svg>