<?xml version="1.0" standalone="no"?>
<!DOCTYPE svg PUBLIC "-//W3C//DTD SVG 20010904//EN"
 "http://www.w3.org/TR/2001/REC-SVG-20010904/DTD/svg10.dtd">
<svg version="1.0" xmlns="http://www.w3.org/2000/svg"
 width="666.000000pt" height="666.000000pt" viewBox="0 0 666.000000 666.000000"
 preserveAspectRatio="xMidYMid meet">

<g transform="translate(0.000000,666.000000) scale(0.100000,-0.100000)"
fill="#000000" stroke="none">
<path d="M3185 5909 c-384 -29 -803 -169 -1122 -375 -219 -141 -474 -371 -615
-554 -164 -213 -301 -459 -386 -695 -101 -279 -146 -537 -146 -840 1 -395 75
-718 248 -1080 235 -491 639 -893 1150 -1147 57 -28 85 -47 81 -56 -2 -7 -1
-11 4 -7 5 3 17 2 28 -2 13 -6 4 -9 -31 -13 -46 -5 -48 -6 -34 -21 15 -14 14
-17 -15 -34 l-31 -18 22 -15 c12 -8 22 -21 22 -28 0 -8 19 -19 45 -25 25 -6
43 -15 40 -19 -3 -4 2 -11 11 -14 20 -8 1718 -8 1738 0 9 3 14 10 11 14 -2 4
23 13 56 20 54 12 63 17 77 47 16 33 16 35 -3 46 -11 7 -31 14 -45 17 -22 5
-20 7 25 30 28 14 52 27 55 30 3 3 64 34 135 69 387 189 752 523 993 907 166
267 299 630 348 959 22 147 25 513 6 650 -93 647 -410 1220 -882 1596 -541
430 -1117 610 -1785 558z m317 -1276 c223 -24 403 -91 576 -213 255 -179 429
-449 488 -757 24 -122 23 -348 -1 -473 -92 -483 -413 -917 -1010 -1365 -85
-63 -156 -115 -159 -115 -3 0 -6 121 -6 269 l0 269 -77 7 c-295 27 -543 135
-739 322 -256 245 -378 533 -377 893 2 566 331 1073 1047 1611 l141 107 5
-272 5 -271 107 -12z"/>
</g>
</svg>
