<svg xmlns="http://www.w3.org/2000/svg" width="48" height="48" viewBox="0 0 799 799" version="1.1"><path d="M 392.940 121.706 C 373.253 136.103, 353.360 151.320, 345 158.377 C 269.350 222.235, 229.426 278.387, 213.625 343.154 C 208.766 363.070, 207.751 372.070, 207.775 395 C 207.798 416.408, 208.795 426.360, 212.584 443 C 216.726 461.196, 227.563 486.528, 238.037 502.497 C 269.312 550.181, 319.295 582.072, 374.436 589.522 C 380.451 590.335, 387.735 591, 390.621 591 C 393.508 591, 397.024 591.439, 398.435 591.975 L 401 592.950 401 635.975 C 401 659.639, 401.292 679, 401.649 679 C 402.395 679, 425.544 662.284, 434.558 655.237 C 437.890 652.631, 442.390 649.152, 444.558 647.504 C 458.135 637.185, 483.141 615.106, 497.090 601.120 C 545.208 552.875, 570.092 513.726, 585.900 461.401 C 595.495 429.640, 596.792 386.070, 589.105 353.703 C 578.663 309.738, 553.810 271.904, 517.053 244.019 C 487.156 221.337, 451.447 207.987, 414 205.490 C 408.775 205.142, 403.712 204.634, 402.750 204.361 C 401.119 203.899, 400.999 200.993, 400.985 161.683 C 400.976 138.482, 400.612 118.937, 400.175 118.248 C 399.595 117.335, 397.637 118.271, 392.940 121.706" stroke="none" fill="#fafbfb" fill-rule="evenodd"/><path d="M 369.500 0.643 C 244.906 10.660, 133.895 76.144, 65.525 179.954 C 31.057 232.290, 9.928 290.987, 1.794 357 C 0.026 371.348, 0.051 428.960, 1.831 443 C 8.597 496.352, 22.078 540.740, 44.610 583.850 C 83.773 658.779, 139.706 713.938, 220 756.812 C 250.474 773.084, 294.236 787.360, 333.598 793.869 C 358.595 798.002, 365.815 798.501, 400 798.453 C 435.611 798.403, 444.310 797.688, 472.363 792.507 C 589.060 770.954, 690.763 697.911, 748.758 594 C 775.798 545.552, 794.267 485.394, 797.649 434.750 C 798.008 429.387, 798.683 425, 799.150 425 C 799.618 425, 800 413.273, 800 398.941 C 800 384.609, 799.617 373.119, 799.148 373.408 C 798.680 373.698, 798.004 369.562, 797.647 364.217 C 796.901 353.040, 793.980 332.851, 791.085 318.859 C 769.561 214.831, 707.501 123.452, 618.956 65.409 C 567.124 31.433, 511.023 10.907, 446.760 2.406 C 434.969 0.847, 382.001 -0.362, 369.500 0.643 M 392.940 121.706 C 373.253 136.103, 353.360 151.320, 345 158.377 C 269.350 222.235, 229.426 278.387, 213.625 343.154 C 208.766 363.070, 207.751 372.070, 207.775 395 C 207.798 416.408, 208.795 426.360, 212.584 443 C 216.726 461.196, 227.563 486.528, 238.037 502.497 C 269.312 550.181, 319.295 582.072, 374.436 589.522 C 380.451 590.335, 387.735 591, 390.621 591 C 393.508 591, 397.024 591.439, 398.435 591.975 L 401 592.950 401 635.975 C 401 659.639, 401.292 679, 401.649 679 C 402.395 679, 425.544 662.284, 434.558 655.237 C 437.890 652.631, 442.390 649.152, 444.558 647.504 C 458.135 637.185, 483.141 615.106, 497.090 601.120 C 545.208 552.875, 570.092 513.726, 585.900 461.401 C 595.495 429.640, 596.792 386.070, 589.105 353.703 C 578.663 309.738, 553.810 271.904, 517.053 244.019 C 487.156 221.337, 451.447 207.987, 414 205.490 C 408.775 205.142, 403.712 204.634, 402.750 204.361 C 401.119 203.899, 400.999 200.993, 400.985 161.683 C 400.976 138.482, 400.612 118.937, 400.175 118.248 C 399.595 117.335, 397.637 118.271, 392.940 121.706 M 0.437 400 C 0.437 414.575, 0.577 420.538, 0.747 413.250 C 0.918 405.962, 0.918 394.038, 0.747 386.750 C 0.577 379.462, 0.437 385.425, 0.437 400" stroke="none" fill="#045cdf" fill-rule="evenodd"/></svg>