<svg xmlns="http://www.w3.org/2000/svg" xmlns:xlink="http://www.w3.org/1999/xlink" width="842" height="672" viewBox="0 0 842 672">
  <defs>
    <clipPath id="clip-path">
      <rect id="Rectangle_1213" data-name="Rectangle 1213" width="842" height="672" transform="translate(1078 263)" fill="#1e1e1e"/>
    </clipPath>
  </defs>
  <g id="Mask_Group_361" data-name="Mask Group 361" transform="translate(-1078 -263)" clip-path="url(#clip-path)">
    <g id="Layer_2" data-name="Layer 2" transform="translate(1078 316.66)">
      <g id="OBJECTS" transform="translate(0 0.34)">
        <path id="Path_54923" data-name="Path 54923" d="M365.357,147.817C316.549,102.051,259.38,90.256,244.27,87.845c10.168-27.462,25.9-68.287,29.827-74.327a56.054,56.054,0,0,1,7.638-.437c11.1,0,34.859,2.3,69.3,17.776,49.712,22.34,62.939,47.468,65.545,53.614Z" transform="translate(123.707 6.111)" fill="#fff"/>
        <path id="Path_54924" data-name="Path 54924" d="M283.118,17.116c10.861,0,34.136,2.275,68,17.5,44.922,20.216,59.429,42.813,63.27,50.45L366.423,144.44a242.535,242.535,0,0,0-81.453-48.417,228.266,228.266,0,0,0-35.205-9.551C261,56.253,273.25,25.13,277.363,17.357c1.326-.121,3.254-.241,5.77-.241m0-6.026a50.963,50.963,0,0,0-9.144.633c-3.54,1.175-32.449,79.6-32.449,79.6s68.633,7,125.516,61.945L421.288,86.05s-9.039-30.52-67.79-56.913C319.121,13.651,295.154,11.06,283.027,11.06Z" transform="translate(122.324 5.089)" fill="#4c9dd2"/>
        <path id="Path_54925" data-name="Path 54925" d="M248.22,68.39s67.488,6.809,109.081,45" transform="translate(125.707 34.123)" fill="none" stroke="#2a1e17" stroke-linecap="round" stroke-linejoin="round" stroke-width="1"/>
        <path id="Path_54926" data-name="Path 54926" d="M286.9,82.659,312.088,33.7l25.881,51.053Z" transform="translate(145.296 16.555)" fill="#2980b9"/>
        <path id="Path_54927" data-name="Path 54927" d="M290.15,82.2,315.338,33.24l25.881,51.053Z" transform="translate(146.942 16.322)" fill="none" stroke="#2a1e17" stroke-linecap="round" stroke-linejoin="round" stroke-width="1"/>
        <path id="Path_54928" data-name="Path 54928" d="M274.47,9.1s75.668,6.824,122.7,62.728" transform="translate(139.001 4.096)" fill="none" stroke="#2a1e17" stroke-linecap="round" stroke-linejoin="round" stroke-width="1"/>
        <path id="Path_54929" data-name="Path 54929" d="M302.444,167.128c-4.158-3.013-6.884-5.107-6.884-5.107,1.16-1.506,19.373-20.939,29.918-36.561C325.478,125.46,304.147,168.454,302.444,167.128Z" transform="translate(149.682 63.025)" fill="#2a1e17"/>
        <path id="Path_54930" data-name="Path 54930" d="M128.85,59.25c2.019,3.374,2.922,2.034,8.783,1.506s14.191,3.826,17.128,11.042,2.019,8.331.452,9.234-12.85,2.26-13.3,4.519" transform="translate(65.254 29.494)" fill="none" stroke="#2a1e17" stroke-linecap="round" stroke-linejoin="round" stroke-width="1"/>
        <path id="Path_54931" data-name="Path 54931" d="M237.647,305.693l-5.257-8.873-18.62,31.048,4.881,3.766Z" transform="translate(108.26 149.807)" fill="#f9865f"/>
        <path id="Path_54932" data-name="Path 54932" d="M149.716,259.47s-9.641-15.682-5.5-23.38l30.776,3.3Z" transform="translate(72.513 119.052)" fill="#f9865f"/>
        <path id="Path_54933" data-name="Path 54933" d="M148.875,260.326l1.853,4.248-5.649,22.175a7.622,7.622,0,0,0,2.4,7.638h0l28.155-41.623a9.671,9.671,0,0,0-1.431-12.518l-6.282-5.845Z" transform="translate(73.354 118.196)" fill="#2980b9"/>
        <path id="Path_54934" data-name="Path 54934" d="M142.358,85.792c8.813-.211,19.99-.768,17.761-7.532S149.5,54.8,130.5,59.821c0,0-6.7,5.589,1.687,15.652S142.358,85.792,142.358,85.792Z" transform="translate(64.807 29.314)" fill="#2a1e33"/>
        <path id="Path_54935" data-name="Path 54935" d="M184.951,280.182s-15.064-44.44-2.32-63.948c10.545-16.1,44.847,10.078,49.562,13.558l24.57-44.38s-5.679-7.954-19.584-15.742-71.465-31.108-98.491,11.554c-10,15.757-10.153,83.411,9.039,109.337Z" transform="translate(66.85 78.636)" fill="#334756"/>
        <path id="Path_54936" data-name="Path 54936" d="M169.651,261.774s-15.064-44.44-2.32-63.948c10.545-16.1,44.847,10.078,49.562,13.558" transform="translate(82.149 97.044)" fill="none" stroke="#2a1e17" stroke-linecap="round" stroke-linejoin="round" stroke-width="1"/>
        <path id="Path_54937" data-name="Path 54937" d="M233.681,175.66c-11.178,11.765-44.319,69.07-51.761,96.412-9.973,36.636-6.222,67.021,48.552,126.54l26.483-38.565s-18.62-28.276-15.14-54.91c5.016-38.55,32.449-75.939,46.338-99.635Z" transform="translate(89.931 88.448)" fill="#334756"/>
        <path id="Path_54938" data-name="Path 54938" d="M217.61,178.96l44.033,34.573,13.166-20.005Z" transform="translate(110.205 90.119)" fill="#2a1e17"/>
        <path id="Path_54939" data-name="Path 54939" d="M385.53,154.84q10.3,2.214,15.7,7.849c3.6,3.766,1.958,5.724.648,6.869s-6.372-.166-10.786-4.1S385.53,154.84,385.53,154.84Z" transform="translate(195.245 77.904)" fill="#ff8a66"/>
        <path id="Path_54940" data-name="Path 54940" d="M295.56,162.021c1.16-1.506,19.373-20.939,29.918-36.561,0,0,31.861,35.7,35.311,36.847,1.3.437,9.039.331,18.8.226,16.405-.166,38.2-.331,43.024,2.079,7.668,3.841,12.277,5.77,14.206,11.148s2.666,8.873-1.928,9.2c-5.378.392-8.828-6.523-8.828-6.523a107.1,107.1,0,0,1-15.742,6.915s-40.839,15.848-68.136,8.18C334.742,191.442,295.56,162.021,295.56,162.021Z" transform="translate(149.682 63.025)" fill="#f9865f"/>
        <path id="Path_54941" data-name="Path 54941" d="M132.717,55.3c-3.51,1.341-5.634,2.938-3.6,6.312s2.922,2.034,8.783,1.506,14.191,3.826,17.128,11.042,2.019,8.331.452,9.234-12.85,2.26-13.3,4.519,4.519,8.9,14.929,8.451l2.486-.452s21.8,21.3,24.947,24.449,26.348,18.861,39.167,22.054c9.7,2.425,29.36-.693,41.186-3.013,5.74-1.115,9.626-2.034,9.626-2.034S265.6,121.5,263.807,96.9c0,0-21.226,3.4-35.326,6.493,0,0-32.9-18.333-48.9-26.453,0,0-13.965-17.128-20.5-19.373S137.447,53.512,132.717,55.3Z" transform="translate(64.988 27.127)" fill="#f9865f"/>
        <path id="Path_54942" data-name="Path 54942" d="M221.2,124.416c5.739-1.115,9.626-2.034,9.626-2.034S220.1,108.825,218.292,84.3c0,0-4.851,5.227-3.344,19.132C216.77,120.921,221.2,124.416,221.2,124.416Z" transform="translate(108.71 42.18)" fill="#2a1e17"/>
        <path id="Path_54943" data-name="Path 54943" d="M229.779,83.922s.3,30.023,8.331,42.542L241,125.3s-37.857,44.334-50.149,73.3c-2,4.745,78.681,56.28,90.6,55.557,0,0,39.3-60,52.725-77.792l14.447,11.208s28.336-28.713,29.873-38.9c0,0-27.387-33.322-49.712-43.069s-42.451-26.468-66.509-26C241.453,80,229.779,83.922,229.779,83.922Z" transform="translate(96.635 39.802)" fill="#2980b9"/>
        <path id="Path_54944" data-name="Path 54944" d="M300.447,157.155,286,145.947l2.3-6.267Z" transform="translate(144.84 70.226)" fill="#2a1e17"/>
        <path id="Path_54945" data-name="Path 54945" d="M333.378,81.234c-2.531,7.864-9.837,30.641-17.987,33.443s-16.571-.723-16.571-.723l-8.677,4.519c-.979,2.907-7.818,5.408-16.676,5.755-6.553.256-10.545-8.165-8.6-14.251.889-2.8,4.218-16.571,4.218-16.571s7.02-25.85,13.558-31.183,12.534-10.635,29.782-3.661C338.726,69.152,333.378,81.234,333.378,81.234Z" transform="translate(133.887 27.455)" fill="#f9865f"/>
        <path id="Path_54946" data-name="Path 54946" d="M279.728,89.624c-1.16,4.836-6.191,14.507-9.475,12.759s-4.444-6.176-2.124-14.688,4.248-27.824,10.816-31.3,9.475.572,9.475.572-2.892-14.1,5.6-16.044c0,0,2.907-1.341,1.747,8.316a12.925,12.925,0,0,1,13.9-7.728c10.635,1.16,14.311,16.044,14.311,16.044a5.348,5.348,0,0,1,5.6-4.067c4.836,0,12.172,7.156,10.44,15.064,0,0,12.368-3.872,18.936,6.026s5.8,20.683-10.048,24.931c-16.571,4.519-16.435-14.884-18.951-17.4s-5.212-5.408-14.492-1.928-18.936-6.764-18.936-6.764-1.506,12.368-3.088,13.558-4.64,2.7-3.872-3.013,1.732-5.227,1.16-6.764-3.194-6.432-8.692-2.139C275.857,79.772,279.728,89.624,279.728,89.624Z" transform="translate(135.174 20.18)" fill="#1e1e1e"/>
        <path id="Path_54947" data-name="Path 54947" d="M278.667,81.123c-3.676-3.013-6.237-8.557-3.013-14.01s8.557-6.191,10.184-4.128,2.245,5.544.723,9.671" transform="translate(138.856 30.85)" fill="none" stroke="#2a1e33" stroke-linecap="round" stroke-linejoin="round" stroke-width="1"/>
        <path id="Path_54948" data-name="Path 54948" d="M218.374,328.636l1.853,4.248-5.694,22.175a7.532,7.532,0,0,0,2.4,7.638h0l28.155-41.623a9.656,9.656,0,0,0-1.506-12.518L237.3,302.71Z" transform="translate(108.522 152.79)" fill="#2980b9"/>
        <path id="Path_54949" data-name="Path 54949" d="M284.087,54.528s-2.154-7-8.617-8.858" transform="translate(139.507 22.617)" fill="none" stroke="#2a1e33" stroke-linecap="round" stroke-linejoin="round" stroke-width="1"/>
        <line id="Line_599" data-name="Line 599" y1="108.96" x2="78.003" transform="translate(286.599 127.324)" fill="none" stroke="#2a1e17" stroke-linecap="round" stroke-linejoin="round" stroke-width="1"/>
        <path id="Path_54950" data-name="Path 54950" d="M264,89.92c-2.817,3.661-4.1,19.373,8.828,20.4a34.934,34.934,0,0,0,21.2-4.655" transform="translate(132.761 45.026)" fill="none" stroke="#2a1e17" stroke-linecap="round" stroke-linejoin="round" stroke-width="1"/>
        <path id="Path_54951" data-name="Path 54951" d="M148.74,56.56s8.918,11.8,10.319,16" transform="translate(75.327 28.132)" fill="none" stroke="#2a1e17" stroke-linecap="round" stroke-linejoin="round" stroke-width="1"/>
        <path id="Path_54952" data-name="Path 54952" d="M370.36,164.472s6.026,4.9,17.821-1.506c4.308-2.3,1.235-7.743-4.2-6.387a25.686,25.686,0,0,1-11.916-.678" transform="translate(187.563 78.441)" fill="none" stroke="#2a1e17" stroke-linecap="round" stroke-linejoin="round" stroke-width="1"/>
        <path id="Path_54953" data-name="Path 54953" d="M386.88,155.29s5.724,6.673,5.559,10.635" transform="translate(195.929 78.132)" fill="none" stroke="#2a1e17" stroke-linecap="round" stroke-linejoin="round" stroke-width="1"/>
        <path id="Path_54954" data-name="Path 54954" d="M331.05,157.286s5.167-6.884,11.765-7.366" transform="translate(167.655 75.412)" fill="none" stroke="#2a1e17" stroke-linecap="round" stroke-linejoin="round" stroke-width="1"/>
        <path id="Path_54955" data-name="Path 54955" d="M186.39,98.113s3.013-9.4,12.684-11.133" transform="translate(94.394 43.537)" fill="none" stroke="#2a1e17" stroke-linecap="round" stroke-linejoin="round" stroke-width="1"/>
        <path id="Path_54956" data-name="Path 54956" d="M217,189l-11.524,22.069s-38.022,64.4-25.127,105.978" transform="translate(89.982 95.204)" fill="none" stroke="#2a1e17" stroke-linecap="round" stroke-linejoin="round" stroke-width="1"/>
        <path id="Path_54957" data-name="Path 54957" d="M226.14,297.652l37.45-64.129s49.034-71.119,54.051-81.152L334.95,120.36" transform="translate(114.525 60.442)" fill="none" stroke="#2a1e17" stroke-linecap="round" stroke-linejoin="round" stroke-width="1"/>
        <path id="Path_54958" data-name="Path 54958" d="M193.72,161.73s66.524,48.507,86.258,50.842" transform="translate(98.106 81.393)" fill="none" stroke="#2a1e17" stroke-linecap="round" stroke-linejoin="round" stroke-width="1"/>
        <path id="Path_54959" data-name="Path 54959" d="M216.68,82.47s0,30.445,8.15,42.918" transform="translate(109.734 41.253)" fill="none" stroke="#2a1e17" stroke-linecap="round" stroke-linejoin="round" stroke-width="1"/>
        <path id="Path_54960" data-name="Path 54960" d="M324.043,122.25c-2.094,12.549-29.873,38.9-29.873,38.9" transform="translate(148.978 61.399)" fill="none" stroke="#2a1e17" stroke-linecap="round" stroke-linejoin="round" stroke-width="1"/>
        <circle id="Ellipse_607" data-name="Ellipse 607" cx="3.947" cy="3.947" r="3.947" transform="translate(261.848 332.018)" fill="#2a1e17"/>
        <path id="Path_54961" data-name="Path 54961" d="M423.214,284.79l-2.184-15.11,12.88,8.572-6.734,1.461Z" transform="translate(213.224 136.063)" fill="none" stroke="#2a1e17" stroke-linecap="round" stroke-linejoin="round" stroke-width="1"/>
        <path id="Path_54962" data-name="Path 54962" d="M146.854,110C122.42,88.44,82.078,142.174,229.708,313.215,314.9,411.886,381.858,420.729,390.9,386.4c16.27-61.583-42.481-77.144-20.623-53.026,31.786,35.07,122.2,42.481,189.57,9.762,66.479-32.3,25.609-82.462,21.5-85.385" transform="translate(62.148 52.909)" fill="none" stroke="#2a1e17" stroke-linecap="round" stroke-linejoin="round" stroke-width="1"/>
        <circle id="Ellipse_608" data-name="Ellipse 608" cx="3.947" cy="3.947" r="3.947" transform="translate(619.159 391.778)" fill="#2a1e17"/>
        <line id="Line_600" data-name="Line 600" y1="66.012" x2="117.095" transform="translate(565.621 361.966)" fill="none" stroke="#2a1e17" stroke-linecap="round" stroke-linejoin="round" stroke-width="1"/>
        <circle id="Ellipse_609" data-name="Ellipse 609" cx="3.947" cy="3.947" r="3.947" transform="translate(207.481 162.153)" fill="#2a1e17"/>
        <circle id="Ellipse_610" data-name="Ellipse 610" cx="8.481" cy="8.481" r="8.481" transform="translate(303.682 76.045)" fill="#ff6d66"/>
        <path id="Path_54963" data-name="Path 54963" d="M106.391,13.55a1.539,1.539,0,1,0,0-.03Z" transform="translate(51.98 6.335)" fill="#a0c6f4"/>
        <circle id="Ellipse_611" data-name="Ellipse 611" cx="3.721" cy="3.721" r="3.721" transform="translate(653.883 475.189)" fill="#fad8b0"/>
        <path id="Path_54964" data-name="Path 54964" d="M406.6,226.542l-40.056-18.8a4.143,4.143,0,0,1,.09-7.532l74.523-32.8a4.218,4.218,0,0,1,3.314,0l51.219,21.979Z" transform="translate(184.431 84.1)" fill="#334756"/>
        <path id="Path_54965" data-name="Path 54965" d="M390.69,180.188c.105,16.571,2.486,61.764,2.486,61.764l89.045-37.194-1.989-62.894a5.408,5.408,0,0,0-7.653-4.76L395.9,172.054a8.858,8.858,0,0,0-5.212,8.135Z" transform="translate(197.858 68.675)" fill="#c6cbcb"/>
        <path id="Path_54966" data-name="Path 54966" d="M392.34,241.933l89.045-37.194L479.4,141.846s-.6-6.869-7.653-4.76" transform="translate(198.694 68.709)" fill="none" stroke="#334756" stroke-linecap="round" stroke-linejoin="round" stroke-width="1"/>
        <line id="Line_601" data-name="Line 601" y1="14.206" x2="6.011" transform="translate(634.133 251.228)" fill="none" stroke="#334756" stroke-linecap="round" stroke-linejoin="round" stroke-width="1"/>
        <line id="Line_602" data-name="Line 602" y1="14.206" x2="6.011" transform="translate(640.144 251.228)" fill="none" stroke="#334756" stroke-linecap="round" stroke-linejoin="round" stroke-width="1"/>
        <circle id="Ellipse_612" data-name="Ellipse 612" cx="3.721" cy="3.721" r="3.721" transform="translate(170.709 413.004)" fill="#ff6d66"/>
        <circle id="Ellipse_613" data-name="Ellipse 613" cx="5.182" cy="5.182" r="5.182" transform="translate(483.385 430.012)" fill="#ff6d66"/>
        <path id="Path_54967" data-name="Path 54967" d="M144.646,313.71A110.663,110.663,0,0,0,191.692,323.8a2.109,2.109,0,0,1,2.109,2.4l-3.254,25.79a2.094,2.094,0,0,1-1.717,1.823c-6.583,1.235-33.142,4.9-53.057-11.976a2.109,2.109,0,0,1-.648-2.154l6.568-24.6a2.109,2.109,0,0,1,2.953-1.371Z" transform="translate(68.393 158.256)" fill="#dbdbdb"/>
        <path id="Path_54968" data-name="Path 54968" d="M143,318.68s11.494,16.134,15.592,18.439,26.2-10.861,26.2-10.861" transform="translate(72.42 160.878)" fill="none" stroke="#2a1e17" stroke-linecap="round" stroke-linejoin="round" stroke-width="1"/>
        <line id="Line_603" data-name="Line 603" x2="12.067" y2="12.398" transform="translate(241.798 495.752)" fill="none" stroke="#2a1e17" stroke-linecap="round" stroke-linejoin="round" stroke-width="1"/>
        <line id="Line_604" data-name="Line 604" x1="14.115" y2="3.841" transform="translate(210.916 493.357)" fill="none" stroke="#2a1e17" stroke-linecap="round" stroke-linejoin="round" stroke-width="1"/>
        <rect id="Rectangle_5350" data-name="Rectangle 5350" width="13.483" height="13.483" transform="translate(569.01 166.777)" fill="#ffe1c0"/>
        <path id="Path_54969" data-name="Path 54969" d="M381.619,231.74l4.007,6.945,4.007,6.945H373.62l3.992-6.945Z" transform="translate(189.214 116.849)" fill="#a0c6f4"/>
        <path id="Path_54970" data-name="Path 54970" d="M163.882,40.952l1.039-31.515c-.105-2.938,1.085-3.872,2.907-4.278,8.557-1.883,34.573-7.683,62.863.678,3.661,1.085,3.54,3.013,3.48,4.76l-1.009,30.038a4.067,4.067,0,0,1-4.956,3.42,219.641,219.641,0,0,0-30.9-1.506,175.737,175.737,0,0,0-29.662,2.4C164.846,45.5,163.791,43.407,163.882,40.952Z" transform="translate(82.993 0.219)" fill="none" stroke="#2a1e17" stroke-linecap="round" stroke-linejoin="round" stroke-width="1"/>
        <path id="Path_54971" data-name="Path 54971" d="M170.2,31.092,186.665,11.81,204.893,29.8C198.611,27.763,170.2,31.092,170.2,31.092Z" transform="translate(86.195 5.469)" fill="none" stroke="#2a1e17" stroke-linecap="round" stroke-linejoin="round" stroke-width="1"/>
        <path id="Path_54972" data-name="Path 54972" d="M187.83,21.326,201.147,10.66l11.223,8.014.422,12.518-16.827-.813" transform="translate(95.123 4.886)" fill="none" stroke="#2a1e17" stroke-linecap="round" stroke-linejoin="round" stroke-width="1"/>
        <ellipse id="Ellipse_614" data-name="Ellipse 614" cx="2.757" cy="3.239" rx="2.757" ry="3.239" transform="matrix(0.101, -0.995, 0.995, 0.101, 256.829, 17.944)" fill="none" stroke="#2a1e17" stroke-linecap="round" stroke-linejoin="round" stroke-width="1"/>
        <path id="Path_54973" data-name="Path 54973" d="M390.11,299.982l11.057,20.4c1.16,1.823.738,2.862-.256,3.8-4.73,4.384-19.1,17.731-40.192,22.943-2.712.678-3.359-.6-3.977-1.732L346.2,325.937a3.013,3.013,0,0,1,1.868-4.022,160.679,160.679,0,0,0,20.186-10.545,128.4,128.4,0,0,0,17.942-12.534C387.8,297.451,389.251,298.385,390.11,299.982Z" transform="translate(175.21 150.487)" fill="none" stroke="#2a1e17" stroke-linecap="round" stroke-linejoin="round" stroke-width="1"/>
        <path id="Path_54974" data-name="Path 54974" d="M379.637,303.66l-3.284,18.363-18.273-4.655C362.84,316.344,379.637,303.66,379.637,303.66Z" transform="translate(181.344 153.272)" fill="none" stroke="#2a1e17" stroke-linecap="round" stroke-linejoin="round" stroke-width="1"/>
        <path id="Path_54975" data-name="Path 54975" d="M370.313,315.5l-4.5,11.72-10.093-.919-4.926-7.8,10.982-5.74" transform="translate(177.652 157.88)" fill="none" stroke="#2a1e17" stroke-linecap="round" stroke-linejoin="round" stroke-width="1"/>
        <ellipse id="Ellipse_615" data-name="Ellipse 615" cx="2.38" cy="2.019" rx="2.38" ry="2.019" transform="matrix(0.91, -0.416, 0.416, 0.91, 563.29, 470.963)" fill="none" stroke="#2a1e17" stroke-linecap="round" stroke-linejoin="round" stroke-width="1"/>
        <path id="Path_54976" data-name="Path 54976" d="M339.861,72.969l44.892,34.362a2.23,2.23,0,0,0,3.133-.437l6.764-9.189a2.2,2.2,0,0,0-.392-3.013L350.015,59.231a2.245,2.245,0,0,0-3.194.437l-7.412,10.244a2.23,2.23,0,0,0,.452,3.058Z" transform="translate(171.679 29.242)" fill="#fff" stroke="#2a1e17" stroke-linecap="round" stroke-linejoin="round" stroke-width="1"/>
        <path id="Path_54977" data-name="Path 54977" d="M341.78,70.234l10.876,7.638,6.432-7.668L348.2,61.12Z" transform="translate(173.089 30.441)" fill="#ff9f45"/>
        <path id="Path_54978" data-name="Path 54978" d="M351.72,76.722l10.907,8.647,5.845-7.186-10.982-8.9Z" transform="translate(178.123 34.574)" fill="#6a5495"/>
        <path id="Path_54979" data-name="Path 54979" d="M361.39,84.733l10.891,7.638,5.182-6.658-10.3-8.632Z" transform="translate(183.02 38.524)" fill="#ffbc80"/>
        <path id="Path_54980" data-name="Path 54980" d="M399,38.489l10.229,85.957a3.4,3.4,0,0,0,3.841,3.013l17.309-2.38a3.39,3.39,0,0,0,2.922-3.691l-8.361-86.364a3.4,3.4,0,0,0-3.872-3.013l-19.162,2.8A3.4,3.4,0,0,0,399,38.489Z" transform="translate(202.062 15.682)" fill="#fff" stroke="#2a1e17" stroke-linecap="round" stroke-linejoin="round" stroke-width="1"/>
        <path id="Path_54981" data-name="Path 54981" d="M402.5,38.541l3.239,20.1,15.275-1.13L419.342,35.86Z" transform="translate(203.84 17.649)" fill="#fc4f4f"/>
        <path id="Path_54982" data-name="Path 54982" d="M405.38,56.622l2.154,21.2,14.13-1.265L419.706,55.01Z" transform="translate(205.298 27.347)" fill="#2ba977"/>
        <path id="Path_54983" data-name="Path 54983" d="M406.99,75.8l3.239,20.1,12.85-1.416L421.527,73.95Z" transform="translate(206.113 36.939)" fill="#f0a500"/>
        <path id="Path_54984" data-name="Path 54984" d="M384.248,52.072l28.321,83.261a2.712,2.712,0,0,0,3.48,1.672l17.731-6.387a2.712,2.712,0,0,0,1.672-3.359l-26.6-84.074a2.7,2.7,0,0,0-3.51-1.717l-19.463,7.2A2.712,2.712,0,0,0,384.248,52.072Z" transform="translate(194.524 20.403)" fill="#fff" stroke="#2a1e17" stroke-linecap="round" stroke-linejoin="round" stroke-width="1"/>
        <path id="Path_54985" data-name="Path 54985" d="M388.02,51.521l7.351,19,14.7-4.293L403.943,45.39Z" transform="translate(196.506 22.475)" fill="#4c9dd2"/>
        <path id="Path_54986" data-name="Path 54986" d="M394.68,68.435l6.508,20.292,13.558-4.188L408.358,63.87Z" transform="translate(199.879 31.834)" fill="#2980b9"/>
        <path id="Path_54987" data-name="Path 54987" d="M400.22,86.881l7.351,18.981,12.277-4.067L414.064,82.03Z" transform="translate(202.685 41.031)" fill="#334756"/>
        <rect id="Rectangle_5351" data-name="Rectangle 5351" width="159.546" height="35.868" rx="5.48" transform="translate(214.034 177.639)" fill="#4c9dd2"/>
        <rect id="Rectangle_5352" data-name="Rectangle 5352" width="83.426" height="5.453" rx="1.81" transform="translate(231.027 188.199)" fill="#fff"/>
        <line id="Line_605" data-name="Line 605" x2="132.551" transform="translate(231.81 200.732)" fill="none" stroke="#2a1e17" stroke-linecap="round" stroke-linejoin="round" stroke-width="1"/>
        <path id="Path_54988" data-name="Path 54988" d="M0,0H3.4A2.561,2.561,0,0,1,5.965,2.561v5A2.561,2.561,0,0,1,3.4,10.123H.06V0Z" transform="matrix(0.674, 0.738, -0.738, 0.674, 163.979, 110.173)" fill="#91ba83"/>
        <rect id="Rectangle_5353" data-name="Rectangle 5353" width="18.725" height="12.91" rx="0.98" transform="matrix(-0.674, -0.738, 0.738, -0.674, 155.322, 118.084)" fill="none" stroke="#2a1e17" stroke-linecap="round" stroke-linejoin="round" stroke-width="1"/>
        <rect id="Rectangle_5354" data-name="Rectangle 5354" width="13.362" height="12.202" transform="translate(119.204 158.266)" fill="#ff6d66"/>
        <path id="Path_54989" data-name="Path 54989" d="M81.814,100.19v7.849H73.83" transform="translate(37.39 50.227)" fill="none" stroke="#2a1e17" stroke-linecap="round" stroke-linejoin="round" stroke-width="1"/>
        <rect id="Rectangle_5355" data-name="Rectangle 5355" width="13.362" height="12.202" transform="translate(559.459 20.472)" fill="#fad8b0"/>
        <path id="Path_54990" data-name="Path 54990" d="M374.064,8.72v7.849H366.08" transform="translate(185.395 3.904)" fill="none" stroke="#2a1e17" stroke-linecap="round" stroke-linejoin="round" stroke-width="1"/>
        <path id="Path_54991" data-name="Path 54991" d="M179.642,69.149C41.051,11.724-65.56,122.326,195.6,291.679c20.563,13.347,52.092,18.077,52.092,18.077" transform="translate(18.152 26.751)" fill="none" stroke="#2a1e17" stroke-linecap="round" stroke-linejoin="round" stroke-width="1"/>
        <circle id="Ellipse_616" data-name="Ellipse 616" cx="3.947" cy="3.947" r="3.947" transform="translate(66.419 95.809)" fill="#2a1e17"/>
        <path id="Path_54992" data-name="Path 54992" d="M30.03,53.568l4.323-4.158L44.281,55.1l5,15.411-15.26-6.387Z" transform="translate(15.208 24.511)" fill="none" stroke="#2a1e17" stroke-linecap="round" stroke-linejoin="round" stroke-width="1"/>
        <path id="Path_54993" data-name="Path 54993" d="M35.169,50.337l-4.323,4.158L28.42,51.557l4.143-3.977Z" transform="translate(14.393 23.584)" fill="none" stroke="#2a1e17" stroke-linecap="round" stroke-linejoin="round" stroke-width="1"/>
        <line id="Line_606" data-name="Line 606" x1="9.927" y1="10.892" transform="translate(54.563 84.134)" fill="none" stroke="#2a1e17" stroke-linecap="round" stroke-linejoin="round" stroke-width="1"/>
        <path id="Path_54994" data-name="Path 54994" d="M58.762,248.8l10.771,55.482a2.214,2.214,0,0,0,2.636,1.763l11.163-2.365a2.229,2.229,0,0,0,1.732-2.546l-9.6-55.859A2.2,2.2,0,0,0,72.8,243.5l-12.338,2.727A2.229,2.229,0,0,0,58.762,248.8Z" transform="translate(29.741 122.775)" fill="#fff" stroke="#2a1e17" stroke-linecap="round" stroke-linejoin="round" stroke-width="1"/>
        <path id="Path_54995" data-name="Path 54995" d="M61.08,248.556l3.073,12.94,9.882-1.461L71.926,246.01Z" transform="translate(30.933 124.076)" fill="#334756"/>
        <path id="Path_54996" data-name="Path 54996" d="M63.84,260.167l2.41,13.694,9.144-1.491-2.3-13.95Z" transform="translate(32.331 130.36)" fill="#2980b9"/>
        <path id="Path_54997" data-name="Path 54997" d="M65.8,272.578l3.058,12.94,8.3-1.552L75.185,270.68Z" transform="translate(33.323 136.569)" fill="#fb8c00"/>
        <path id="Path_54998" data-name="Path 54998" d="M263.44,343.4l45.494-12.172,1.747,4.926L264.66,348.1Z" transform="translate(133.415 167.234)" fill="none" stroke="#2a1e17" stroke-linecap="round" stroke-linejoin="round" stroke-width="1"/>
        <line id="Line_607" data-name="Line 607" x2="1.326" y2="4.128" transform="translate(390.528 504.279)" fill="none" stroke="#2a1e17" stroke-linecap="round" stroke-linejoin="round" stroke-width="1"/>
        <line id="Line_608" data-name="Line 608" y1="1.326" x2="3.841" transform="translate(389.247 505.65)" fill="none" stroke="#2a1e17" stroke-linecap="round" stroke-linejoin="round" stroke-width="1"/>
        <line id="Line_609" data-name="Line 609" x2="2.471" y2="7.803" transform="translate(388.329 520.051)" fill="none" stroke="#2a1e17" stroke-linecap="round" stroke-linejoin="round" stroke-width="1"/>
        <line id="Line_610" data-name="Line 610" y1="2.169" x2="6.839" transform="translate(386.22 522.823)" fill="none" stroke="#2a1e17" stroke-linecap="round" stroke-linejoin="round" stroke-width="1"/>
        <line id="Line_611" data-name="Line 611" x2="3.239" y2="10.334" transform="translate(377.919 507.186)" fill="none" stroke="#2a1e17" stroke-linecap="round" stroke-linejoin="round" stroke-width="1"/>
        <line id="Line_612" data-name="Line 612" y1="3.058" x2="9.581" transform="translate(374.71 510.561)" fill="none" stroke="#2a1e17" stroke-linecap="round" stroke-linejoin="round" stroke-width="1"/>
        <path id="Path_54999" data-name="Path 54999" d="M52.848,16.625l-28.788-13L25.25.34,54.219,13.672Z" transform="translate(12.185 -0.34)" fill="none" stroke="#2a1e17" stroke-linecap="round" stroke-linejoin="round" stroke-width="0.67"/>
        <line id="Line_613" data-name="Line 613" y1="2.712" x2="1.07" transform="translate(65.62 19.569)" fill="none" stroke="#2a1e17" stroke-linecap="round" stroke-linejoin="round" stroke-width="0.67"/>
        <line id="Line_614" data-name="Line 614" x1="2.561" y1="0.949" transform="translate(64.867 20.472)" fill="none" stroke="#2a1e17" stroke-linecap="round" stroke-linejoin="round" stroke-width="0.67"/>
        <line id="Line_615" data-name="Line 615" y1="5.092" x2="2.034" transform="translate(73.454 9.927)" fill="none" stroke="#2a1e17" stroke-linecap="round" stroke-linejoin="round" stroke-width="0.67"/>
        <line id="Line_616" data-name="Line 616" x1="4.459" y1="1.778" transform="translate(72.188 11.569)" fill="none" stroke="#2a1e17" stroke-linecap="round" stroke-linejoin="round" stroke-width="0.67"/>
        <line id="Line_617" data-name="Line 617" y1="6.734" x2="2.712" transform="translate(73.393 19.388)" fill="none" stroke="#2a1e17" stroke-linecap="round" stroke-linejoin="round" stroke-width="0.67"/>
        <line id="Line_618" data-name="Line 618" x1="6.267" y1="2.486" transform="translate(71.525 21.663)" fill="none" stroke="#2a1e17" stroke-linecap="round" stroke-linejoin="round" stroke-width="0.67"/>
        <path id="Path_55000" data-name="Path 55000" d="M125.906,194.181c-20.292-14.627-40.237-37.329-31.484-60.664,0,0,13.995-9.325,36.154,2.335l22.16,11.66Z" transform="translate(46.747 65.317)" fill="#ffbc80"/>
        <path id="Path_55001" data-name="Path 55001" d="M127.337,286.82c-9.129-4.308-48.131-24.615-55.06-59.308-5.95-29.9,16.917-70.366,28.411-88.232-.738,23.7,23.048,43.762,34.543,52.017a122.563,122.563,0,0,0,32.027,16.857Z" transform="translate(36.111 70.024)" fill="#fff"/>
        <path id="Path_55002" data-name="Path 55002" d="M99.689,149.92c2.486,15.742,14.507,32.072,34.964,46.8a122.262,122.262,0,0,0,30.129,16.285l-37.661,74.4c-11.494-5.709-45.509-25.1-51.836-56.747-5.273-26.317,12.579-61.221,24.449-80.745m6.116-17.52S62.691,190.73,70.856,231.554s58.314,61.764,58.314,61.764l42-82.854c-13.121-4.806-21.647-8.722-33.835-17.49C117.043,178.347,97.1,155.645,105.85,132.31Z" transform="translate(35.363 66.494)" fill="#ffbc80"/>
        <path id="Path_55003" data-name="Path 55003" d="M86.17,154.83A50.059,50.059,0,0,0,112.111,190.8" transform="translate(43.639 77.899)" fill="none" stroke="#2a1e17" stroke-linecap="round" stroke-linejoin="round" stroke-width="1"/>
        <line id="Line_619" data-name="Line 619" x2="23.425" y2="12.549" transform="translate(168.299 277.078)" fill="none" stroke="#2a1e17" stroke-linecap="round" stroke-linejoin="round" stroke-width="1"/>
        <path id="Path_55004" data-name="Path 55004" d="M88.39,177.05s7.532,16.736,31.8,27.613" transform="translate(44.764 89.152)" fill="none" stroke="#2a1e17" stroke-linecap="round" stroke-linejoin="round" stroke-width="1"/>
        <path id="Path_55005" data-name="Path 55005" d="M75.62,178.71s.829,17.58,12.549,23.44" transform="translate(38.297 89.993)" fill="none" stroke="#2a1e17" stroke-linecap="round" stroke-linejoin="round" stroke-width="1"/>
        <path id="Path_55006" data-name="Path 55006" d="M93.4,138.17s-2.169,22.6,31.967,51.867" transform="translate(47.287 69.462)" fill="none" stroke="#2a1e17" stroke-linecap="round" stroke-linejoin="round" stroke-width="1"/>
        <path id="Path_55007" data-name="Path 55007" d="M101.72,140.944s10.876-.829,26.784,10.876" transform="translate(51.514 70.86)" fill="none" stroke="#2a1e17" stroke-linecap="round" stroke-linejoin="round" stroke-width="1"/>
        <path id="Path_55008" data-name="Path 55008" d="M67.8,188.77c-.708,11.193.693,51.761,59.444,77.627" transform="translate(34.287 95.087)" fill="none" stroke="#2a1e17" stroke-linecap="round" stroke-linejoin="round" stroke-width="1"/>
        <path id="Path_55009" data-name="Path 55009" d="M325.176,173.79,300.26,223.728s16.9,6.222,3.691,25.609c0,0,31.228,12.955,51.671-20.683S325.176,173.79,325.176,173.79Z" transform="translate(152.062 87.501)" fill="#8bdb81"/>
        <path id="Path_55010" data-name="Path 55010" d="M292.249,306.22c-12.609,0-25.926-5.152-39.589-15.32l46.7-77.22,27.628,17.46h.181a42.933,42.933,0,0,0,15.14,2.621h0a41.879,41.879,0,0,0,24.464-7.728l-34.076,58.3c-.09.105-14.763,21.813-40.463,21.813Z" transform="translate(127.956 107.703)" fill="#fff"/>
        <path id="Path_55011" data-name="Path 55011" d="M301.03,218.576l25.609,16.134.316.211.362.136a45,45,0,0,0,16,2.8A44.545,44.545,0,0,0,361.574,234l-29.737,50.872c-.979,1.416-14.778,20.819-38.58,20.819-11.615,0-23.907-4.595-36.576-13.663l44.349-73.484m79.69-8.346c-11.554,19.011-26.543,23.139-37.4,23.139a40.673,40.673,0,0,1-14.266-2.455l-29.526-18.574L250.67,293.235c16.36,12.609,30.626,17.008,42.572,17.008,27.3,0,42.406-22.943,42.406-22.943Z" transform="translate(126.948 105.94)" fill="#8bdb81"/>
        <path id="Path_55012" data-name="Path 55012" d="M300.26,206.94s18.574,6.568,3.691,25.609" transform="translate(152.062 104.289)" fill="none" stroke="#2a1e17" stroke-linecap="round" stroke-linejoin="round" stroke-width="1"/>
        <path id="Path_55013" data-name="Path 55013" d="M282.73,210.44s25.323,23.2,39.333,23.033,30.445-3.48,40.146-20.2" transform="translate(143.184 106.062)" fill="none" stroke="#2a1e17" stroke-linecap="round" stroke-linejoin="round" stroke-width="1"/>
        <path id="Path_55014" data-name="Path 55014" d="M284.79,230.36s17.384,15.426,36.817,10.47" transform="translate(144.227 116.15)" fill="none" stroke="#2a1e17" stroke-linecap="round" stroke-linejoin="round" stroke-width="1"/>
        <path id="Path_55015" data-name="Path 55015" d="M296.91,245.67s9.039,6.824,21.858.362" transform="translate(150.365 123.903)" fill="none" stroke="#2a1e17" stroke-linecap="round" stroke-linejoin="round" stroke-width="1"/>
        <path id="Path_55016" data-name="Path 55016" d="M269.07,252s21.09,20.924,54.141,7.11" transform="translate(136.266 127.109)" fill="none" stroke="#2a1e17" stroke-linecap="round" stroke-linejoin="round" stroke-width="1"/>
        <path id="Path_55017" data-name="Path 55017" d="M276.67,238.43s8.572,6.146,13.95,8.1" transform="translate(140.115 120.237)" fill="none" stroke="#2a1e17" stroke-linecap="round" stroke-linejoin="round" stroke-width="1"/>
        <path id="Path_55018" data-name="Path 55018" d="M319.64,183.41s19.207,6.282,21.512,31.635" transform="translate(161.877 92.373)" fill="none" stroke="#2a1e17" stroke-linecap="round" stroke-linejoin="round" stroke-width="1"/>
        <path id="Path_55019" data-name="Path 55019" d="M328.1,204.2s8.843,13.678-6.1,27.372" transform="translate(163.072 102.902)" fill="none" stroke="#2a1e17" stroke-linecap="round" stroke-linejoin="round" stroke-width="1"/>
        <path id="Path_55020" data-name="Path 55020" d="M251.86,270.21s48.206,41.306,83.23-6.99" transform="translate(127.55 132.791)" fill="none" stroke="#2a1e17" stroke-linecap="round" stroke-linejoin="round" stroke-width="1"/>
        <line id="Line_620" data-name="Line 620" x2="11.238" transform="translate(31.304 245.699)" fill="none" stroke="#ff6d66" stroke-linecap="round" stroke-linejoin="round" stroke-width="1"/>
        <line id="Line_621" data-name="Line 621" x2="11.238" transform="translate(657.604 110.467)" fill="none" stroke="#ff6d66" stroke-linecap="round" stroke-linejoin="round" stroke-width="1"/>
        <line id="Line_622" data-name="Line 622" x2="11.253" transform="translate(356.091 33.337)" fill="none" stroke="#fad8b0" stroke-width="1"/>
        <line id="Line_623" data-name="Line 623" x2="11.057" y2="1.988" transform="translate(679.07 168.781)" fill="none" stroke="#fad8b0" stroke-width="1"/>
        <line id="Line_624" data-name="Line 624" x2="11.253" transform="translate(237.414 449.324)" fill="none" stroke="#a0c6f4" stroke-linecap="round" stroke-linejoin="round" stroke-width="1"/>
        <circle id="Ellipse_617" data-name="Ellipse 617" cx="3.721" cy="3.721" r="3.721" transform="translate(699.573 305.445)" fill="#91ba83"/>
        <circle id="Ellipse_618" data-name="Ellipse 618" cx="3.721" cy="3.721" r="3.721" transform="translate(0 126.751)" fill="#91ba83"/>
        <circle id="Ellipse_619" data-name="Ellipse 619" cx="3.947" cy="3.947" r="3.947" transform="translate(742.672 545.103)" fill="#2a1e17"/>
        <circle id="Ellipse_620" data-name="Ellipse 620" cx="3.947" cy="3.947" r="3.947" transform="translate(967.763 411.723)" fill="#2a1e17"/>
        <path id="Path_55021" data-name="Path 55021" d="M743.433,293.837s31.033-92.375-107.65-37.872C491.6,312.608,434.026,431.39,457.647,440.775s58.871-11.841,58.871-11.841" transform="translate(229.166 120.402)" fill="none" stroke="#2a1e17" stroke-linecap="round" stroke-linejoin="round" stroke-width="1"/>
      </g>
    </g>
  </g>
</svg>
